<?xml version="1.0" encoding="UTF-8"?>
<svg id="Capa_2" data-name="Capa 2" xmlns="http://www.w3.org/2000/svg" viewBox="0 0 41.47 41.78">
  <defs>
    <style>
      .cls-1 {
        fill: #243963;
      }

      .cls-2 {
        fill: #fefefe;
      }
    </style>
  </defs>
  <g id="Capa_1-2" data-name="Capa 1">
    <path class="cls-1" d="m20.48,0c11.79-.21,19.98,8.75,20.85,17.87.63,6.57-.81,12.54-5.32,17.4-3.62,3.9-8.25,6.05-13.63,6.44C8.91,42.68,1.29,32.24.21,23.87c-.79-6.13.57-11.77,4.74-16.61C9.1,2.46,14.25.14,20.48,0Zm-1.53,23.25c2.4,0,4.92,0,7.44,0,.35,0,.8-.2,1.02.21.2.39-.19.69-.38.98-.58.9-1.27,1.73-1.81,2.65-.67,1.13-1.74,1.92-2.41,3.03-.6.99-.49,2.23.31,2.81,1.02.74,1.7.04,2.34-.63.48-.51.87-1.1,1.32-1.65,1.8-2.21,3.15-4.73,4.98-6.92,1.11-1.32,1.07-2.67.09-4.18-1.07-1.65-2.21-3.24-3.19-4.95-.88-1.51-1.77-3.05-3.03-4.3-.53-.53-1.17-.8-1.88-.32-.77.51-.96,1.11-.44,1.98.4.67.74,1.37,1.18,2.01,1.02,1.49,2.03,2.99,2.93,4.55.62,1.08.48,1.24-.74,1.25-4.13,0-8.26.01-12.4,0-1.23,0-2.46-.02-3.67.22-.85.17-2,1.16-1.97,1.78.03.58,1.2,1.7,1.82,1.64,2.79-.26,5.59-.07,8.51-.17Z"/>
    <path class="cls-2" d="m18.95,23.25c-2.92.11-5.72-.09-8.51.17-.62.06-1.79-1.07-1.82-1.64-.03-.62,1.12-1.61,1.97-1.78,1.22-.25,2.44-.23,3.67-.22,4.13.02,8.26.01,12.4,0,1.22,0,1.36-.16.74-1.25-.9-1.56-1.91-3.06-2.93-4.55-.44-.65-.78-1.35-1.18-2.01-.51-.86-.33-1.47.44-1.98.72-.47,1.35-.2,1.88.32,1.26,1.25,2.16,2.78,3.03,4.3.99,1.71,2.13,3.3,3.19,4.95.98,1.52,1.02,2.86-.09,4.18-1.83,2.19-3.18,4.71-4.98,6.92-.44.55-.84,1.14-1.32,1.65-.63.67-1.32,1.37-2.34.63-.8-.59-.91-1.82-.31-2.81.67-1.12,1.74-1.9,2.41-3.03.54-.92,1.24-1.75,1.81-2.65.18-.29.58-.59.38-.98-.21-.41-.67-.21-1.02-.21-2.52,0-5.04,0-7.44,0Z"/>
  </g>
</svg>